<svg xmlns="http://www.w3.org/2000/svg" xmlns:xlink="http://www.w3.org/1999/xlink" width="500" zoomAndPan="magnify" viewBox="0 0 375 374.999991" height="500" preserveAspectRatio="xMidYMid meet" version="1.0"><defs><clipPath id="699d2b1fd7"><path d="M 2.046875 0 L 221 0 L 221 205 L 2.046875 205 Z M 2.046875 0 " clip-rule="nonzero"/></clipPath><clipPath id="17123bffbb"><path d="M 32 19 L 374.796875 19 L 374.796875 375 L 32 375 Z M 32 19 " clip-rule="nonzero"/></clipPath></defs><rect x="-37.5" width="450" fill="#ffffff" y="-37.499999" height="449.999989" fill-opacity="1"/><rect x="-37.5" width="450" fill="#ffffff" y="-37.499999" height="449.999989" fill-opacity="1"/><path fill="#ffd788" d="M 231.878906 122.152344 C 223.851562 128.574219 215.972656 127.988281 215.972656 127.988281 L 210.6875 119.414062 L 210.132812 119.671875 C 210.132812 119.671875 210.1875 119.339844 210.292969 118.777344 L 207.070312 113.546875 L 211.519531 113.113281 C 212.851562 107.769531 215.070312 101.085938 217.867188 100.996094 C 221.167969 100.894531 220.605469 108.066406 219.992188 112.292969 L 220.609375 112.234375 C 220.609375 112.234375 228.664062 114.421875 231.585938 111.210938 C 234.503906 108 239.902344 103.039062 241.796875 104.0625 C 243.695312 105.085938 239.902344 115.730469 231.878906 122.152344 Z M 151.445312 53.828125 L 139.007812 57.203125 L 135.953125 82.601562 C 135.828125 84.035156 136.183594 85.339844 137.023438 86.515625 L 132.414062 87.582031 C 132.414062 87.582031 129.683594 106.390625 143.183594 106.390625 C 156.6875 106.390625 155.238281 100.121094 155.238281 100.121094 L 155.261719 91.101562 C 175.734375 89.453125 163.117188 53.828125 163.117188 53.828125 Z M 151.445312 53.828125 " fill-opacity="1" fill-rule="nonzero"/><path fill="#ffde59" d="M 259.894531 84.507812 C 252.457031 92.824219 227.355469 118.652344 227.355469 118.652344 L 138.582031 118.652344 L 188.105469 78.667969 L 188.105469 25.480469 C 188.105469 25.09375 188.140625 24.707031 188.21875 24.328125 C 188.292969 23.949219 188.40625 23.578125 188.554688 23.21875 C 188.703125 22.859375 188.882812 22.519531 189.101562 22.199219 C 189.316406 21.875 189.5625 21.578125 189.835938 21.300781 C 190.109375 21.027344 190.40625 20.78125 190.730469 20.566406 C 191.054688 20.351562 191.394531 20.167969 191.753906 20.019531 C 192.109375 19.871094 192.480469 19.761719 192.859375 19.683594 C 193.242188 19.609375 193.625 19.570312 194.015625 19.570312 L 260.695312 19.570312 C 261.085938 19.570312 261.46875 19.609375 261.847656 19.683594 C 262.230469 19.761719 262.601562 19.871094 262.957031 20.019531 C 263.316406 20.167969 263.65625 20.351562 263.980469 20.566406 C 264.300781 20.78125 264.601562 21.027344 264.875 21.300781 C 265.148438 21.578125 265.394531 21.875 265.609375 22.199219 C 265.824219 22.519531 266.007812 22.859375 266.15625 23.21875 C 266.304688 23.578125 266.417969 23.949219 266.492188 24.328125 C 266.570312 24.707031 266.605469 25.09375 266.605469 25.480469 L 266.605469 72.761719 C 266.605469 72.761719 267.335938 76.1875 259.894531 84.507812 Z M 133.347656 194.765625 L 127.019531 190.117188 C 124.875 191.480469 123.015625 193.160156 121.445312 195.160156 L 121.378906 195.160156 L 121.378906 195.234375 C 117.550781 199.960938 113.507812 208.222656 115.410156 221.09375 C 116.753906 230.175781 119.738281 236.574219 122.824219 240.976562 L 124.007812 278.59375 L 121.378906 356.015625 C 131.902344 361.65625 151.863281 356.015625 151.863281 356.015625 C 166.9375 361.277344 184.144531 356.015625 184.144531 356.015625 L 191.402344 276.714844 L 191.402344 193.828125 L 166.960938 193.65625 Z M 245.449219 147.761719 L 227.554688 147.761719 C 227.171875 147.761719 226.804688 147.835938 226.453125 147.980469 C 226.101562 148.128906 225.792969 148.335938 225.523438 148.605469 C 225.253906 148.875 225.046875 149.183594 224.898438 149.535156 C 224.753906 149.886719 224.679688 150.253906 224.679688 150.636719 L 224.679688 206.859375 C 224.679688 207.238281 224.753906 207.605469 224.898438 207.957031 C 225.046875 208.308594 225.253906 208.621094 225.523438 208.890625 C 225.792969 209.160156 226.101562 209.367188 226.453125 209.511719 C 226.804688 209.65625 227.171875 209.730469 227.554688 209.730469 L 245.449219 209.730469 C 245.828125 209.730469 246.195312 209.65625 246.546875 209.511719 C 246.898438 209.367188 247.210938 209.160156 247.480469 208.890625 C 247.75 208.621094 247.957031 208.308594 248.101562 207.957031 C 248.25 207.605469 248.320312 207.238281 248.320312 206.859375 L 248.320312 150.636719 C 248.320312 150.253906 248.25 149.890625 248.101562 149.539062 C 247.957031 149.183594 247.75 148.875 247.480469 148.605469 C 247.210938 148.335938 246.902344 148.128906 246.546875 147.980469 C 246.195312 147.835938 245.832031 147.761719 245.449219 147.761719 Z M 286.53125 116.257812 L 268.636719 116.257812 C 268.253906 116.257812 267.890625 116.332031 267.539062 116.476562 C 267.183594 116.625 266.875 116.832031 266.605469 117.101562 C 266.335938 117.371094 266.128906 117.679688 265.984375 118.03125 C 265.835938 118.382812 265.765625 118.75 265.765625 119.132812 L 265.765625 206.859375 C 265.765625 207.238281 265.835938 207.605469 265.984375 207.957031 C 266.128906 208.308594 266.335938 208.621094 266.605469 208.890625 C 266.875 209.160156 267.183594 209.367188 267.539062 209.511719 C 267.890625 209.660156 268.253906 209.730469 268.636719 209.730469 L 286.53125 209.730469 C 286.914062 209.730469 287.277344 209.660156 287.632812 209.511719 C 287.984375 209.367188 288.292969 209.160156 288.5625 208.890625 C 288.832031 208.621094 289.039062 208.308594 289.183594 207.957031 C 289.332031 207.605469 289.402344 207.238281 289.402344 206.859375 L 289.402344 119.132812 C 289.402344 118.75 289.332031 118.382812 289.1875 118.03125 C 289.039062 117.679688 288.832031 117.371094 288.5625 117.101562 C 288.292969 116.832031 287.984375 116.625 287.632812 116.476562 C 287.28125 116.332031 286.914062 116.257812 286.53125 116.257812 Z M 327.613281 65.445312 L 309.71875 65.445312 C 309.335938 65.445312 308.972656 65.515625 308.621094 65.664062 C 308.265625 65.808594 307.957031 66.015625 307.6875 66.285156 C 307.417969 66.554688 307.210938 66.863281 307.066406 67.21875 C 306.917969 67.570312 306.847656 67.933594 306.847656 68.316406 L 306.847656 206.859375 C 306.847656 207.238281 306.917969 207.605469 307.066406 207.957031 C 307.210938 208.308594 307.417969 208.621094 307.6875 208.890625 C 307.957031 209.160156 308.265625 209.367188 308.621094 209.511719 C 308.972656 209.660156 309.335938 209.730469 309.71875 209.730469 L 327.613281 209.730469 C 327.996094 209.730469 328.363281 209.660156 328.714844 209.511719 C 329.066406 209.367188 329.375 209.160156 329.644531 208.890625 C 329.914062 208.621094 330.121094 208.308594 330.269531 207.957031 C 330.414062 207.605469 330.484375 207.238281 330.484375 206.859375 L 330.484375 68.316406 C 330.488281 67.933594 330.414062 67.566406 330.269531 67.214844 C 330.121094 66.863281 329.914062 66.550781 329.644531 66.28125 C 329.375 66.011719 329.066406 65.804688 328.714844 65.660156 C 328.363281 65.515625 327.996094 65.441406 327.613281 65.441406 Z M 327.613281 65.445312 " fill-opacity="1" fill-rule="nonzero"/><g clip-path="url(#699d2b1fd7)"><path fill="#219ebc" d="M 219.695312 130.660156 C 215.742188 138.140625 204.234375 164.078125 192.019531 167.140625 C 191.722656 182.292969 191.40625 193.828125 191.40625 193.828125 C 191.40625 193.828125 188.679688 204.113281 169.148438 204.113281 C 149.617188 204.113281 119.398438 205.882812 114.414062 198.972656 C 109.429688 192.058594 115.539062 184.503906 116.664062 180.808594 C 116.9375 179.917969 116.757812 176.894531 116.332031 172.820312 C 95.976562 179.484375 94.644531 159.109375 94.644531 159.109375 L 94.644531 125.234375 L 14.359375 125.234375 C 13.5625 125.234375 12.769531 125.15625 11.988281 125 C 11.203125 124.84375 10.441406 124.613281 9.703125 124.308594 C 8.964844 124 8.265625 123.625 7.601562 123.183594 C 6.9375 122.738281 6.324219 122.234375 5.757812 121.667969 C 5.191406 121.105469 4.6875 120.492188 4.246094 119.828125 C 3.800781 119.164062 3.425781 118.460938 3.121094 117.722656 C 2.8125 116.984375 2.582031 116.226562 2.425781 115.441406 C 2.269531 114.65625 2.191406 113.867188 2.191406 113.066406 L 2.191406 12.167969 C 2.191406 11.367188 2.269531 10.578125 2.425781 9.792969 C 2.582031 9.007812 2.8125 8.25 3.121094 7.511719 C 3.425781 6.773438 3.800781 6.070312 4.242188 5.40625 C 4.6875 4.742188 5.191406 4.128906 5.757812 3.5625 C 6.320312 3 6.9375 2.496094 7.601562 2.050781 C 8.265625 1.605469 8.964844 1.230469 9.703125 0.925781 C 10.441406 0.621094 11.203125 0.390625 11.984375 0.234375 C 12.769531 0.078125 13.5625 0 14.359375 0 L 143.117188 0 C 143.917969 0 144.707031 0.078125 145.492188 0.234375 C 146.273438 0.390625 147.035156 0.621094 147.773438 0.925781 C 148.511719 1.230469 149.214844 1.605469 149.878906 2.050781 C 150.542969 2.496094 151.15625 3 151.722656 3.5625 C 152.285156 4.128906 152.789062 4.742188 153.234375 5.40625 C 153.679688 6.070312 154.054688 6.773438 154.359375 7.511719 C 154.664062 8.25 154.894531 9.007812 155.050781 9.792969 C 155.207031 10.578125 155.285156 11.367188 155.285156 12.167969 L 155.285156 53.828125 L 151.445312 53.828125 L 139.007812 57.203125 L 135.953125 82.601562 C 135.828125 84.035156 136.183594 85.339844 137.023438 86.515625 L 132.414062 87.582031 C 132.074219 90.394531 132.121094 93.195312 132.550781 95.996094 C 132.558594 96.003906 137.0625 102.851562 143.738281 101.726562 C 147.960938 100.957031 151.796875 99.296875 155.25 96.746094 L 155.25 96.664062 C 155.261719 96.660156 155.273438 96.65625 155.285156 96.652344 L 155.285156 96.742188 L 155.425781 96.738281 L 157.660156 96.738281 C 165.914062 96.933594 192.53125 99.464844 192.53125 123.910156 C 192.53125 124.855469 192.53125 125.816406 192.53125 126.789062 C 198.621094 119.128906 206.589844 109.601562 208.195312 110.085938 C 210.855469 110.890625 224.195312 122.140625 219.695312 130.660156 Z M 219.695312 130.660156 " fill-opacity="1" fill-rule="nonzero"/></g><path fill="#8ecae6" d="M 259.945312 29.605469 L 259.945312 67.773438 C 259.9375 68.09375 259.898438 68.414062 259.824219 68.726562 C 259.753906 69.039062 259.652344 69.34375 259.523438 69.636719 C 259.390625 69.933594 259.234375 70.210938 259.046875 70.472656 C 258.863281 70.734375 258.652344 70.976562 258.421875 71.199219 C 258.1875 71.421875 257.933594 71.617188 257.664062 71.789062 C 257.390625 71.960938 257.105469 72.105469 256.804688 72.21875 C 256.503906 72.335938 256.195312 72.421875 255.878906 72.476562 C 255.5625 72.53125 255.242188 72.554688 254.921875 72.546875 L 198.242188 72.546875 C 197.921875 72.554688 197.601562 72.53125 197.285156 72.476562 C 196.96875 72.421875 196.660156 72.335938 196.359375 72.21875 C 196.058594 72.105469 195.773438 71.960938 195.503906 71.789062 C 195.230469 71.617188 194.976562 71.421875 194.746094 71.199219 C 194.511719 70.976562 194.300781 70.734375 194.117188 70.472656 C 193.929688 70.210938 193.773438 69.933594 193.640625 69.636719 C 193.511719 69.34375 193.410156 69.039062 193.339844 68.726562 C 193.269531 68.414062 193.230469 68.09375 193.21875 67.773438 L 193.21875 29.605469 C 193.230469 29.285156 193.269531 28.964844 193.339844 28.652344 C 193.410156 28.339844 193.511719 28.035156 193.640625 27.742188 C 193.773438 27.445312 193.929688 27.167969 194.117188 26.90625 C 194.300781 26.644531 194.511719 26.402344 194.746094 26.179688 C 194.976562 25.957031 195.230469 25.761719 195.5 25.589844 C 195.773438 25.417969 196.058594 25.273438 196.359375 25.160156 C 196.660156 25.042969 196.96875 24.957031 197.285156 24.902344 C 197.601562 24.847656 197.921875 24.824219 198.242188 24.832031 L 254.921875 24.832031 C 255.242188 24.824219 255.5625 24.847656 255.878906 24.902344 C 256.195312 24.957031 256.503906 25.042969 256.804688 25.160156 C 257.105469 25.273438 257.390625 25.417969 257.664062 25.589844 C 257.933594 25.761719 258.1875 25.957031 258.421875 26.179688 C 258.652344 26.402344 258.863281 26.644531 259.046875 26.90625 C 259.234375 27.167969 259.390625 27.449219 259.523438 27.742188 C 259.652344 28.035156 259.753906 28.339844 259.824219 28.652344 C 259.898438 28.964844 259.9375 29.285156 259.945312 29.605469 Z M 137.523438 9.648438 L 19.953125 9.648438 C 19.5625 9.648438 19.171875 9.6875 18.789062 9.761719 C 18.40625 9.839844 18.03125 9.953125 17.667969 10.101562 C 17.308594 10.253906 16.964844 10.4375 16.636719 10.65625 C 16.3125 10.871094 16.011719 11.121094 15.734375 11.398438 C 15.457031 11.675781 15.210938 11.976562 14.992188 12.300781 C 14.773438 12.628906 14.589844 12.972656 14.441406 13.332031 C 14.292969 13.695312 14.179688 14.066406 14.101562 14.453125 C 14.027344 14.835938 13.988281 15.226562 13.988281 15.617188 L 13.988281 109.621094 C 13.988281 110.011719 14.027344 110.402344 14.101562 110.785156 C 14.179688 111.167969 14.292969 111.542969 14.441406 111.90625 C 14.589844 112.265625 14.777344 112.609375 14.992188 112.9375 C 15.210938 113.261719 15.457031 113.5625 15.734375 113.839844 C 16.011719 114.117188 16.3125 114.367188 16.640625 114.582031 C 16.964844 114.800781 17.308594 114.984375 17.671875 115.136719 C 18.035156 115.285156 18.40625 115.398438 18.792969 115.476562 C 19.175781 115.550781 19.5625 115.589844 19.957031 115.589844 L 95.9375 115.589844 C 100.472656 100.8125 115.414062 98.03125 115.414062 98.03125 L 132.550781 95.996094 C 132.117188 93.195312 132.074219 90.394531 132.414062 87.582031 L 137.023438 86.515625 C 136.183594 85.339844 135.828125 84.035156 135.953125 82.601562 L 139.003906 57.203125 L 143.496094 55.988281 L 143.496094 15.613281 C 143.492188 15.222656 143.457031 14.832031 143.378906 14.449219 C 143.300781 14.066406 143.1875 13.691406 143.039062 13.328125 C 142.886719 12.96875 142.703125 12.625 142.488281 12.296875 C 142.269531 11.972656 142.023438 11.671875 141.746094 11.394531 C 141.46875 11.117188 141.164062 10.871094 140.839844 10.652344 C 140.515625 10.433594 140.171875 10.25 139.808594 10.101562 C 139.445312 9.953125 139.074219 9.839844 138.6875 9.761719 C 138.304688 9.6875 137.917969 9.648438 137.523438 9.648438 Z M 137.523438 9.648438 " fill-opacity="1" fill-rule="nonzero"/><g clip-path="url(#17123bffbb)"><path fill="#023047" d="M 132.1875 91.261719 C 126.148438 89.191406 112.804688 78.421875 115.859375 57.042969 C 118.183594 40.792969 134.148438 40.613281 141.679688 41.460938 C 154.386719 36.605469 167.753906 39.246094 169.0625 50.453125 C 170.507812 62.832031 152.988281 63.636719 152.988281 63.636719 C 152.988281 63.636719 146.882812 58.8125 144.472656 64.601562 C 142.058594 70.386719 151.445312 73.277344 151.445312 73.277344 L 147.75 86.027344 C 147.457031 87.039062 146.945312 87.929688 146.21875 88.691406 C 145.488281 89.457031 144.625 90.007812 143.628906 90.351562 C 140.558594 91.410156 135.886719 92.53125 132.1875 91.261719 Z M 187.226562 347.722656 C 186.359375 347.722656 185.5625 347.734375 184.855469 347.753906 L 184.5 347.761719 L 183.769531 355.710938 C 178.253906 357.183594 172.644531 357.929688 166.933594 357.957031 C 162.195312 358.007812 157.558594 357.34375 153.023438 355.96875 C 153.066406 355.828125 153.089844 355.6875 153.082031 355.542969 L 147.933594 241.523438 L 147.914062 241.074219 L 147.605469 240.746094 C 141.183594 233.972656 141.574219 227.878906 141.578125 227.820312 C 141.59375 227.660156 141.574219 227.503906 141.527344 227.351562 C 141.476562 227.199219 141.402344 227.0625 141.300781 226.941406 C 141.195312 226.816406 141.074219 226.71875 140.929688 226.644531 C 140.789062 226.574219 140.640625 226.527344 140.480469 226.515625 C 140.320312 226.5 140.164062 226.519531 140.011719 226.566406 C 139.859375 226.617188 139.722656 226.691406 139.597656 226.792969 C 139.476562 226.898438 139.378906 227.019531 139.304688 227.160156 C 139.230469 227.304688 139.1875 227.453125 139.171875 227.613281 C 139.148438 227.898438 138.648438 234.589844 145.542969 242.078125 L 150.671875 355.652344 C 150.675781 355.734375 150.6875 355.820312 150.710938 355.902344 C 145.214844 357.277344 139.632812 358.015625 133.964844 358.121094 C 132.476562 358.125 130.988281 358.046875 129.507812 357.886719 L 129.085938 357.84375 L 129.0625 358.265625 C 128.84375 362.238281 129.0625 369.535156 133.066406 373.769531 C 135.125 375.953125 137.949219 377.0625 141.441406 377.0625 C 147.039062 377.0625 152.355469 375.84375 157.394531 373.414062 C 158.804688 375.835938 161.097656 377.0625 164.210938 377.0625 C 174.066406 377.0625 207.34375 365.628906 208.730469 355.789062 C 208.84375 355.089844 208.800781 354.402344 208.601562 353.726562 C 208.402344 353.046875 208.070312 352.445312 207.597656 351.917969 C 204.390625 348.226562 194.257812 347.722656 187.226562 347.722656 Z M 194.765625 79.476562 L 255.5 79.476562 C 255.722656 79.476562 255.914062 79.398438 256.070312 79.238281 C 256.226562 79.082031 256.308594 78.890625 256.308594 78.667969 C 256.308594 78.445312 256.226562 78.257812 256.070312 78.101562 C 255.914062 77.941406 255.722656 77.863281 255.5 77.863281 L 194.765625 77.863281 C 194.542969 77.867188 194.355469 77.945312 194.199219 78.101562 C 194.042969 78.257812 193.964844 78.449219 193.964844 78.667969 C 193.964844 78.890625 194.042969 79.082031 194.199219 79.238281 C 194.355469 79.394531 194.542969 79.472656 194.765625 79.476562 Z M 190.972656 85.191406 L 198.425781 85.191406 C 198.652344 85.195312 198.847656 85.121094 199.011719 84.964844 C 199.171875 84.804688 199.253906 84.613281 199.253906 84.386719 C 199.253906 84.160156 199.171875 83.964844 199.011719 83.808594 C 198.847656 83.648438 198.652344 83.574219 198.425781 83.582031 L 190.972656 83.582031 C 190.757812 83.585938 190.570312 83.667969 190.421875 83.824219 C 190.269531 83.980469 190.195312 84.167969 190.191406 84.386719 C 190.195312 84.601562 190.269531 84.789062 190.421875 84.945312 C 190.570312 85.101562 190.757812 85.183594 190.972656 85.191406 Z M 185.214844 89.761719 L 193.515625 89.761719 C 193.742188 89.769531 193.9375 89.695312 194.097656 89.535156 C 194.261719 89.378906 194.34375 89.183594 194.34375 88.957031 C 194.34375 88.730469 194.261719 88.539062 194.097656 88.378906 C 193.9375 88.222656 193.742188 88.148438 193.515625 88.152344 L 185.214844 88.152344 C 185 88.160156 184.8125 88.242188 184.664062 88.398438 C 184.511719 88.554688 184.4375 88.742188 184.4375 88.957031 C 184.4375 89.175781 184.511719 89.363281 184.664062 89.519531 C 184.8125 89.675781 185 89.757812 185.214844 89.761719 Z M 179.457031 95.140625 L 189.367188 95.140625 C 189.59375 95.144531 189.789062 95.070312 189.953125 94.914062 C 190.113281 94.753906 190.195312 94.5625 190.195312 94.335938 C 190.195312 94.105469 190.113281 93.914062 189.953125 93.757812 C 189.789062 93.597656 189.59375 93.523438 189.367188 93.53125 L 179.457031 93.53125 C 179.230469 93.523438 179.035156 93.597656 178.875 93.757812 C 178.710938 93.914062 178.628906 94.105469 178.628906 94.335938 C 178.628906 94.5625 178.710938 94.753906 178.875 94.914062 C 179.035156 95.070312 179.230469 95.144531 179.457031 95.140625 Z M 213.667969 85.191406 C 213.886719 85.183594 214.070312 85.101562 214.222656 84.945312 C 214.375 84.789062 214.449219 84.601562 214.449219 84.386719 C 214.449219 84.167969 214.375 83.980469 214.222656 83.824219 C 214.070312 83.667969 213.886719 83.585938 213.667969 83.582031 L 206.21875 83.582031 C 205.988281 83.574219 205.796875 83.648438 205.632812 83.808594 C 205.46875 83.964844 205.386719 84.160156 205.386719 84.386719 C 205.386719 84.613281 205.46875 84.804688 205.632812 84.964844 C 205.796875 85.121094 205.988281 85.195312 206.21875 85.191406 Z M 209.5625 88.957031 C 209.5625 88.738281 209.484375 88.546875 209.328125 88.390625 C 209.171875 88.230469 208.980469 88.152344 208.757812 88.152344 L 200.457031 88.152344 C 200.230469 88.148438 200.035156 88.222656 199.875 88.378906 C 199.710938 88.539062 199.628906 88.730469 199.628906 88.957031 C 199.628906 89.183594 199.710938 89.378906 199.875 89.535156 C 200.035156 89.695312 200.230469 89.769531 200.457031 89.761719 L 208.757812 89.761719 C 208.980469 89.761719 209.167969 89.683594 209.328125 89.527344 C 209.484375 89.371094 209.5625 89.179688 209.5625 88.957031 Z M 205.414062 94.335938 C 205.414062 94.113281 205.335938 93.921875 205.179688 93.765625 C 205.023438 93.609375 204.832031 93.53125 204.613281 93.527344 L 194.699219 93.527344 C 194.484375 93.535156 194.296875 93.617188 194.148438 93.773438 C 193.996094 93.929688 193.917969 94.117188 193.917969 94.332031 C 193.917969 94.550781 193.996094 94.738281 194.148438 94.894531 C 194.296875 95.050781 194.484375 95.132812 194.699219 95.136719 L 204.613281 95.136719 C 204.832031 95.136719 205.023438 95.058594 205.179688 94.902344 C 205.335938 94.746094 205.414062 94.554688 205.414062 94.335938 Z M 228.914062 83.582031 L 221.460938 83.582031 C 221.230469 83.574219 221.039062 83.652344 220.875 83.808594 C 220.710938 83.96875 220.628906 84.160156 220.628906 84.386719 C 220.628906 84.613281 220.710938 84.808594 220.875 84.964844 C 221.039062 85.125 221.230469 85.199219 221.460938 85.191406 L 228.914062 85.191406 C 229.132812 85.183594 229.316406 85.105469 229.46875 84.949219 C 229.621094 84.792969 229.695312 84.605469 229.695312 84.386719 C 229.695312 84.167969 229.621094 83.984375 229.46875 83.828125 C 229.316406 83.671875 229.132812 83.589844 228.914062 83.582031 Z M 214.898438 88.957031 C 214.898438 89.179688 214.976562 89.371094 215.132812 89.527344 C 215.289062 89.683594 215.480469 89.761719 215.703125 89.761719 L 224 89.761719 C 224.226562 89.769531 224.421875 89.695312 224.585938 89.535156 C 224.75 89.378906 224.832031 89.183594 224.832031 88.957031 C 224.832031 88.730469 224.75 88.539062 224.585938 88.378906 C 224.421875 88.222656 224.226562 88.148438 224 88.152344 L 215.699219 88.152344 C 215.480469 88.152344 215.289062 88.234375 215.132812 88.390625 C 214.976562 88.546875 214.894531 88.738281 214.894531 88.957031 Z M 209.945312 95.136719 L 219.851562 95.136719 C 220.066406 95.132812 220.253906 95.050781 220.402344 94.894531 C 220.554688 94.738281 220.632812 94.550781 220.632812 94.332031 C 220.632812 94.117188 220.554688 93.929688 220.402344 93.773438 C 220.253906 93.617188 220.066406 93.535156 219.851562 93.527344 L 209.945312 93.527344 C 209.714844 93.523438 209.519531 93.597656 209.359375 93.757812 C 209.195312 93.914062 209.113281 94.105469 209.113281 94.332031 C 209.113281 94.5625 209.195312 94.753906 209.359375 94.910156 C 209.519531 95.070312 209.714844 95.144531 209.945312 95.136719 Z M 244.15625 85.191406 C 244.382812 85.195312 244.578125 85.121094 244.738281 84.964844 C 244.902344 84.804688 244.984375 84.613281 244.984375 84.386719 C 244.984375 84.160156 244.902344 83.964844 244.738281 83.808594 C 244.578125 83.648438 244.382812 83.574219 244.15625 83.582031 L 236.703125 83.582031 C 236.484375 83.585938 236.300781 83.667969 236.148438 83.824219 C 235.996094 83.980469 235.921875 84.167969 235.921875 84.386719 C 235.921875 84.601562 235.996094 84.789062 236.148438 84.945312 C 236.300781 85.101562 236.484375 85.183594 236.703125 85.191406 Z M 230.140625 88.957031 C 230.140625 89.179688 230.21875 89.371094 230.375 89.527344 C 230.53125 89.683594 230.722656 89.761719 230.945312 89.761719 L 239.242188 89.761719 C 239.46875 89.769531 239.664062 89.695312 239.828125 89.535156 C 239.988281 89.378906 240.070312 89.183594 240.070312 88.957031 C 240.070312 88.730469 239.988281 88.539062 239.828125 88.378906 C 239.664062 88.222656 239.46875 88.148438 239.242188 88.152344 L 230.941406 88.152344 C 230.722656 88.152344 230.53125 88.234375 230.375 88.390625 C 230.21875 88.546875 230.140625 88.738281 230.140625 88.957031 Z M 224.378906 94.335938 C 224.378906 94.558594 224.460938 94.746094 224.617188 94.902344 C 224.773438 95.0625 224.964844 95.140625 225.1875 95.140625 L 235.09375 95.140625 C 235.320312 95.144531 235.515625 95.070312 235.679688 94.914062 C 235.839844 94.753906 235.921875 94.5625 235.921875 94.335938 C 235.921875 94.105469 235.839844 93.914062 235.679688 93.757812 C 235.515625 93.597656 235.320312 93.523438 235.09375 93.53125 L 225.183594 93.53125 C 224.960938 93.53125 224.773438 93.609375 224.617188 93.765625 C 224.457031 93.921875 224.378906 94.113281 224.378906 94.335938 Z M 165.265625 129.222656 C 165.277344 129.066406 165.257812 128.910156 165.207031 128.757812 C 165.15625 128.605469 165.078125 128.46875 164.976562 128.347656 C 164.871094 128.226562 164.746094 128.132812 164.605469 128.058594 C 164.460938 127.988281 164.3125 127.945312 164.152344 127.933594 C 163.992188 127.921875 163.835938 127.941406 163.683594 127.988281 C 163.53125 128.039062 163.398438 128.117188 163.273438 128.21875 C 163.152344 128.324219 163.058594 128.449219 162.984375 128.589844 C 162.914062 128.734375 162.871094 128.882812 162.859375 129.042969 C 162.761719 130.292969 160.699219 159.726562 173.546875 168.671875 C 174.769531 169.519531 176.089844 170.160156 177.515625 170.59375 C 178.9375 171.027344 180.394531 171.230469 181.878906 171.207031 C 185.617188 171.085938 189.164062 170.199219 192.515625 168.539062 C 192.664062 168.472656 192.789062 168.378906 192.898438 168.261719 C 193.007812 168.144531 193.089844 168.011719 193.144531 167.859375 C 193.199219 167.710938 193.226562 167.554688 193.21875 167.394531 C 193.214844 167.234375 193.179688 167.082031 193.109375 166.9375 C 193.042969 166.792969 192.953125 166.664062 192.835938 166.554688 C 192.71875 166.445312 192.585938 166.363281 192.433594 166.308594 C 192.285156 166.253906 192.128906 166.230469 191.96875 166.234375 C 191.808594 166.242188 191.65625 166.277344 191.511719 166.34375 C 184.675781 169.476562 179.09375 169.59375 174.925781 166.691406 C 163.203125 158.53125 165.242188 129.515625 165.265625 129.222656 Z M 191.738281 145.097656 C 191.828125 145.121094 191.921875 145.132812 192.015625 145.132812 C 192.292969 145.132812 192.542969 145.042969 192.765625 144.871094 C 192.984375 144.695312 193.125 144.472656 193.1875 144.199219 C 194.839844 137.128906 193.773438 127.082031 193.726562 126.660156 C 193.710938 126.496094 193.667969 126.34375 193.589844 126.203125 C 193.515625 126.058594 193.414062 125.9375 193.289062 125.832031 C 193.164062 125.730469 193.023438 125.65625 192.867188 125.609375 C 192.710938 125.5625 192.554688 125.550781 192.394531 125.566406 C 192.230469 125.585938 192.082031 125.632812 191.9375 125.710938 C 191.796875 125.789062 191.675781 125.894531 191.574219 126.019531 C 191.476562 126.148438 191.402344 126.289062 191.359375 126.445312 C 191.316406 126.601562 191.308594 126.761719 191.328125 126.921875 C 191.335938 127.019531 192.398438 136.984375 190.839844 143.648438 C 190.800781 143.804688 190.796875 143.960938 190.824219 144.121094 C 190.847656 144.277344 190.902344 144.425781 190.988281 144.558594 C 191.074219 144.695312 191.179688 144.8125 191.308594 144.902344 C 191.441406 144.996094 191.582031 145.0625 191.738281 145.097656 Z M 115.417969 133.117188 C 115.433594 132.957031 115.421875 132.800781 115.378906 132.644531 C 115.332031 132.492188 115.261719 132.351562 115.164062 132.226562 C 115.0625 132.101562 114.941406 132 114.804688 131.921875 C 114.664062 131.84375 114.511719 131.796875 114.355469 131.777344 C 114.195312 131.761719 114.039062 131.773438 113.886719 131.816406 C 113.730469 131.863281 113.589844 131.933594 113.464844 132.03125 C 113.339844 132.132812 113.238281 132.253906 113.160156 132.390625 C 113.082031 132.53125 113.035156 132.683594 113.019531 132.839844 C 112.90625 133.820312 110.324219 157.054688 115.175781 173.171875 C 115.253906 173.425781 115.398438 173.632812 115.613281 173.792969 C 115.828125 173.953125 116.066406 174.03125 116.332031 174.03125 C 116.453125 174.03125 116.566406 174.015625 116.679688 173.980469 C 116.835938 173.933594 116.972656 173.859375 117.097656 173.757812 C 117.222656 173.65625 117.320312 173.535156 117.398438 173.394531 C 117.472656 173.253906 117.519531 173.105469 117.535156 172.945312 C 117.550781 172.785156 117.539062 172.628906 117.492188 172.476562 C 112.78125 156.839844 115.390625 133.351562 115.417969 133.117188 Z M 140.246094 110.332031 C 153.355469 110.332031 159.984375 104.957031 163.40625 97.160156 C 160.699219 96.816406 157.976562 96.675781 155.246094 96.746094 C 151.792969 99.296875 147.957031 100.957031 143.734375 101.726562 C 137.054688 102.851562 132.546875 95.996094 132.546875 95.996094 L 124.339844 96.96875 C 125.167969 100.195312 128.683594 110.332031 140.246094 110.332031 Z M 115.941406 31.410156 C 116.003906 31.179688 116.035156 30.949219 116.035156 30.710938 C 116.035156 30.472656 116.003906 30.242188 115.941406 30.011719 C 115.882812 29.78125 115.792969 29.566406 115.671875 29.359375 C 115.554688 29.15625 115.410156 28.96875 115.242188 28.800781 C 115.074219 28.632812 114.890625 28.488281 114.683594 28.371094 C 114.480469 28.253906 114.261719 28.164062 114.03125 28.101562 C 113.804688 28.039062 113.570312 28.007812 113.332031 28.007812 C 113.097656 28.007812 112.863281 28.039062 112.632812 28.101562 L 99.445312 31.636719 C 98.980469 31.761719 98.578125 31.996094 98.234375 32.335938 C 97.894531 32.675781 97.660156 33.082031 97.535156 33.546875 C 97.410156 34.011719 97.410156 34.480469 97.535156 34.945312 C 97.660156 35.410156 97.894531 35.816406 98.234375 36.15625 L 101.785156 39.707031 L 81.554688 62.066406 C 81.097656 61.808594 80.613281 61.617188 80.105469 61.492188 C 79.597656 61.367188 79.078125 61.3125 78.554688 61.332031 C 78.03125 61.347656 77.519531 61.433594 77.019531 61.59375 C 76.519531 61.75 76.046875 61.972656 75.609375 62.257812 L 59.984375 50.703125 C 60.046875 50.476562 60.097656 50.246094 60.136719 50.011719 C 60.171875 49.777344 60.195312 49.542969 60.203125 49.304688 C 60.210938 49.070312 60.203125 48.832031 60.183594 48.597656 C 60.160156 48.363281 60.125 48.128906 60.074219 47.898438 C 60.023438 47.667969 59.960938 47.441406 59.882812 47.214844 C 59.804688 46.992188 59.710938 46.777344 59.605469 46.5625 C 59.5 46.351562 59.382812 46.148438 59.253906 45.949219 C 59.121094 45.753906 58.980469 45.566406 58.824219 45.386719 C 58.671875 45.207031 58.507812 45.035156 58.332031 44.875 C 58.160156 44.714844 57.972656 44.570312 57.78125 44.433594 C 57.589844 44.296875 57.386719 44.171875 57.179688 44.058594 C 56.972656 43.945312 56.757812 43.847656 56.535156 43.761719 C 56.316406 43.675781 56.089844 43.605469 55.859375 43.546875 C 55.632812 43.492188 55.398438 43.449219 55.164062 43.417969 C 54.929688 43.390625 54.695312 43.375 54.457031 43.375 C 54.222656 43.375 53.984375 43.390625 53.75 43.417969 C 53.515625 43.449219 53.285156 43.492188 53.054688 43.550781 C 52.824219 43.609375 52.601562 43.679688 52.378906 43.765625 C 52.160156 43.851562 51.945312 43.949219 51.738281 44.0625 C 51.527344 44.175781 51.328125 44.300781 51.136719 44.4375 C 50.941406 44.574219 50.757812 44.722656 50.582031 44.882812 C 50.410156 45.039062 50.246094 45.210938 50.09375 45.390625 C 49.9375 45.570312 49.796875 45.757812 49.667969 45.957031 C 49.535156 46.152344 49.417969 46.359375 49.3125 46.570312 C 49.207031 46.78125 49.117188 47 49.039062 47.222656 C 48.960938 47.445312 48.898438 47.675781 48.847656 47.90625 C 48.796875 48.136719 48.761719 48.371094 48.738281 48.605469 C 48.71875 48.839844 48.710938 49.078125 48.71875 49.3125 C 48.726562 49.550781 48.75 49.785156 48.789062 50.019531 C 48.824219 50.253906 48.875 50.484375 48.941406 50.710938 C 49.007812 50.9375 49.085938 51.160156 49.179688 51.378906 C 49.273438 51.59375 49.378906 51.804688 49.496094 52.011719 L 32.824219 72.378906 C 32.660156 72.585938 32.535156 72.816406 32.460938 73.074219 C 32.386719 73.328125 32.359375 73.585938 32.386719 73.851562 C 32.414062 74.117188 32.492188 74.367188 32.617188 74.601562 C 32.742188 74.835938 32.910156 75.035156 33.113281 75.203125 C 33.320312 75.371094 33.550781 75.496094 33.804688 75.574219 C 34.058594 75.648438 34.320312 75.675781 34.582031 75.648438 C 34.847656 75.625 35.097656 75.546875 35.332031 75.425781 C 35.566406 75.300781 35.769531 75.132812 35.9375 74.929688 L 52.609375 54.558594 C 53.441406 54.84375 54.296875 54.933594 55.171875 54.824219 C 56.046875 54.714844 56.851562 54.421875 57.589844 53.9375 L 73.21875 65.492188 C 73.09375 65.929688 73.019531 66.371094 73 66.820312 C 72.980469 67.273438 73.011719 67.722656 73.097656 68.164062 C 73.183594 68.609375 73.320312 69.035156 73.503906 69.445312 C 73.691406 69.859375 73.921875 70.242188 74.199219 70.597656 C 74.476562 70.957031 74.792969 71.277344 75.144531 71.558594 C 75.496094 71.839844 75.878906 72.078125 76.285156 72.273438 C 76.695312 72.464844 77.121094 72.609375 77.5625 72.699219 C 78.003906 72.792969 78.449219 72.832031 78.902344 72.820312 C 79.355469 72.808594 79.796875 72.742188 80.234375 72.625 C 80.667969 72.507812 81.085938 72.339844 81.484375 72.125 C 81.878906 71.90625 82.246094 71.648438 82.582031 71.347656 C 82.917969 71.042969 83.214844 70.707031 83.46875 70.335938 C 83.726562 69.964844 83.933594 69.566406 84.097656 69.144531 C 84.261719 68.722656 84.371094 68.289062 84.433594 67.839844 C 84.492188 67.394531 84.5 66.945312 84.453125 66.496094 C 84.40625 66.046875 84.308594 65.609375 84.160156 65.183594 L 104.632812 42.554688 L 107.894531 45.8125 C 108.234375 46.15625 108.636719 46.386719 109.105469 46.511719 C 109.570312 46.636719 110.035156 46.636719 110.503906 46.511719 C 110.96875 46.386719 111.371094 46.15625 111.714844 45.8125 C 112.054688 45.472656 112.289062 45.070312 112.414062 44.601562 Z M 225.179688 117.371094 L 216.542969 117.371094 C 216.871094 117.785156 217.1875 118.214844 217.492188 118.652344 L 227.355469 118.652344 C 227.355469 118.652344 252.453125 92.824219 259.894531 84.507812 C 267.335938 76.1875 266.605469 72.761719 266.605469 72.761719 L 266.605469 25.480469 C 266.605469 24.855469 266.511719 24.25 266.316406 23.65625 C 266.125 23.0625 265.84375 22.511719 265.476562 22.007812 C 265.109375 21.503906 264.675781 21.070312 264.171875 20.703125 C 263.664062 20.335938 263.117188 20.054688 262.523438 19.863281 C 263.132812 20.421875 263.601562 21.078125 263.933594 21.832031 C 264.265625 22.585938 264.429688 23.378906 264.429688 24.203125 L 264.429688 71.480469 C 264.429688 71.480469 265.160156 74.910156 257.71875 83.226562 C 250.277344 91.542969 225.179688 117.371094 225.179688 117.371094 Z M 200.289062 117.371094 L 191.804688 117.371094 C 191.902344 117.785156 191.980469 118.21875 192.058594 118.652344 L 199.191406 118.652344 C 199.558594 118.214844 199.925781 117.789062 200.289062 117.371094 Z M 370.203125 207.40625 L 334.453125 207.40625 L 334.453125 65.441406 L 327.613281 65.441406 L 327.613281 207.40625 L 292.824219 207.40625 L 292.824219 116.257812 L 285.988281 116.257812 L 285.988281 207.40625 L 251.746094 207.40625 L 251.746094 147.761719 L 244.90625 147.761719 L 244.90625 207.40625 L 191.40625 207.40625 L 191.40625 216.84375 L 370.203125 216.84375 C 370.511719 216.84375 370.820312 216.8125 371.125 216.75 C 371.425781 216.691406 371.722656 216.601562 372.007812 216.484375 C 372.292969 216.363281 372.566406 216.21875 372.824219 216.046875 C 373.082031 215.875 373.320312 215.679688 373.539062 215.460938 C 373.757812 215.242188 373.953125 215.003906 374.125 214.746094 C 374.296875 214.488281 374.441406 214.214844 374.5625 213.929688 C 374.679688 213.644531 374.769531 213.347656 374.832031 213.042969 C 374.890625 212.742188 374.921875 212.433594 374.921875 212.125 C 374.921875 211.8125 374.890625 211.507812 374.828125 211.203125 C 374.769531 210.898438 374.679688 210.605469 374.5625 210.320312 C 374.441406 210.03125 374.296875 209.761719 374.125 209.503906 C 373.953125 209.246094 373.757812 209.007812 373.539062 208.789062 C 373.320312 208.570312 373.082031 208.375 372.824219 208.203125 C 372.566406 208.03125 372.292969 207.882812 372.007812 207.765625 C 371.722656 207.648438 371.425781 207.558594 371.125 207.496094 C 370.820312 207.4375 370.511719 207.40625 370.203125 207.40625 Z M 370.203125 207.40625 " fill-opacity="1" fill-rule="nonzero"/></g></svg>